HIERARCHY
ROOT Hips
{
	OFFSET 0.000000 0.000000 0.000000
	CHANNELS 6 Xposition Yposition Zposition Zrotation Yrotation Xrotation 
	JOINT LowerBack
	{
		OFFSET 0.000000 0.000000 0.000000
		CHANNELS 3 Zrotation Yrotation Xrotation
		JOINT Spine
		{
			OFFSET 0.028270 2.035590 -0.193380
			CHANNELS 3 Zrotation Yrotation Xrotation
			JOINT Spine1
			{
				OFFSET 0.056720 2.048850 -0.042750
				CHANNELS 3 Zrotation Yrotation Xrotation
				JOINT Neck
				{
					OFFSET 0.000000 0.000000 0.000000
					CHANNELS 3 Zrotation Yrotation Xrotation
					JOINT Neck1
					{
						OFFSET -0.054170 1.746240 0.172020
						CHANNELS 3 Zrotation Yrotation Xrotation
						JOINT Head
						{
							OFFSET 0.104070 1.761360 -0.123970
							CHANNELS 3 Zrotation Yrotation Xrotation
							End Site
							{
								OFFSET 0.000000 0.000000 0.000000
							}
						}
					}
				}
				JOINT LeftShoulder
				{
					OFFSET 0.000000 0.000000 0.000000
					CHANNELS 3 Zrotation Yrotation Xrotation
					JOINT LeftArm
					{
						OFFSET 3.362410 1.200890 -0.311210
						CHANNELS 3 Zrotation Yrotation Xrotation
						JOINT LeftForeArm
						{
							OFFSET 4.983000 -0.000000 -0.000000
							CHANNELS 3 Zrotation Yrotation Xrotation
							JOINT LeftHand
							{
								OFFSET 3.483560 -0.000000 -0.000000
								CHANNELS 3 Zrotation Yrotation Xrotation
								JOINT LeftFingerBase
								{
									OFFSET 0.000000 0.000000 0.000000
									CHANNELS 3 Zrotation Yrotation Xrotation
									JOINT LeftHandIndex1
									{
										OFFSET 0.715260 -0.000000 -0.000000
										CHANNELS 3 Zrotation Yrotation Xrotation
										End Site
										{
											OFFSET 0.000000 0.000000 0.000000
										}
									}
								}
								JOINT LThumb
								{
									OFFSET 0.000000 0.000000 0.000000
									CHANNELS 3 Zrotation Yrotation Xrotation
									End Site
									{
										OFFSET 0.000000 0.000000 0.000000
									}
								}
							}
						}
					}
				}
				JOINT RightShoulder
				{
					OFFSET 0.000000 0.000000 0.000000
					CHANNELS 3 Zrotation Yrotation Xrotation
					JOINT RightArm
					{
						OFFSET -3.136600 1.374050 -0.404650
						CHANNELS 3 Zrotation Yrotation Xrotation
						JOINT RightForeArm
						{
							OFFSET -5.241900 -0.000000 -0.000000
							CHANNELS 3 Zrotation Yrotation Xrotation
							JOINT RightHand
							{
								OFFSET -3.444170 -0.000000 -0.000000
								CHANNELS 3 Zrotation Yrotation Xrotation
								JOINT RightFingerBase
								{
									OFFSET 0.000000 0.000000 0.000000
									CHANNELS 3 Zrotation Yrotation Xrotation
									JOINT RightHandIndex1
									{
										OFFSET -0.622530 -0.000000 -0.000000
										CHANNELS 3 Zrotation Yrotation Xrotation
										End Site
										{
											OFFSET 0.000000 0.000000 0.000000
										}
									}
								}
								JOINT RThumb
								{
									OFFSET 0.000000 0.000000 0.000000
									CHANNELS 3 Zrotation Yrotation Xrotation
									End Site
									{
										OFFSET 0.000000 0.000000 0.000000
									}
								}
							}
						}
					}
				}
			}
		}
	}
}
}
MOTION
Frames: 14
Frame Time: 0.008333
0.487150 16.711734 1.473462 15.910563 43.184546 24.596402 1.807903 -3.257271 3.992104 -0.201409 -3.266837 -1.496307 -5.514962 -3.301867 2.652615 10.039729 -9.086527 -6.940111 -2.780724 -0.207579 0.063097 0.000000 0.000000 0.000000 -1.373103 7.648231 3.576994 -24.061921 -6.937919 3.564746 -3.671879 -40.843393 0.009026 -10.206798 -0.315096 0.031940 -0.137032 0.036232 0.000000 0.000000 0.000000 0.000000 0.000000 0.000000 0.000000 14.857090 -8.519530 0.836839 55.642549 -1.293753 -2.570894 4.358616 23.481392 0.010748 10.995470 5.491182 0.528094 0.065598 -0.020516 -0.000000 0.000000 0.000000 0.000000 0.000000 0.000000 0.000000 
0.539120 16.716580 1.593832 15.452944 41.870190 24.234084 1.598871 -3.112948 3.934411 -0.263398 -3.114799 -1.520306 -5.566665 -3.150800 2.624309 10.206753 -8.469977 -6.769247 -2.788841 -0.210132 0.105863 0.000000 0.000000 0.000000 -1.207459 7.853338 3.525739 -24.693110 -6.029092 5.010121 -3.658335 -41.380432 0.006902 -10.389450 -0.309018 0.030817 -0.136077 0.024213 -0.000000 0.000000 0.000000 0.000000 0.000000 0.000000 0.000000 14.896406 -7.823725 0.875082 55.792950 -0.152167 -2.914823 4.408378 22.373976 0.010983 11.142580 5.404094 0.526797 0.066511 -0.021497 -0.000000 0.000000 0.000000 0.000000 0.000000 0.000000 0.000000 
0.587833 16.723442 1.716318 15.057069 40.504647 23.965962 1.325165 -2.983058 3.823951 -0.335199 -2.976025 -1.553214 -5.612876 -3.013125 2.600438 10.360495 -7.883436 -6.600403 -2.792764 -0.212411 0.148580 0.000000 0.000000 0.000000 -1.056696 8.058636 3.471318 -25.342527 -5.028300 6.488025 -3.647278 -41.866320 0.004544 -10.542353 -0.277947 0.027289 -0.135371 0.011693 -0.000000 0.000000 0.000000 0.000000 0.000000 0.000000 0.000000 14.916702 -7.160625 0.909004 55.975623 1.083382 -3.032430 4.444125 21.457640 0.011263 11.291607 5.340721 0.527803 0.066746 -0.022866 -0.000000 0.000000 0.000000 0.000000 0.000000 0.000000 0.000000 
0.633903 16.732632 1.840448 14.710909 39.102660 23.781309 1.010703 -2.866501 3.663164 -0.411924 -2.850218 -1.594608 -5.652254 -2.888603 2.580419 10.488622 -7.320878 -6.437765 -2.793752 -0.214450 0.190073 0.000000 0.000000 0.000000 -0.935794 8.287017 3.414912 -26.010999 -3.995092 7.990312 -3.641378 -42.264979 0.002045 -10.659698 -0.225632 0.021562 -0.135107 -0.000979 -0.000000 0.000000 0.000000 0.000000 0.000000 0.000000 0.000000 14.911793 -6.521011 0.936937 56.194087 2.370100 -2.933634 4.465029 20.789369 0.011563 11.450611 5.293050 0.530810 0.066161 -0.024539 -0.000000 0.000000 0.000000 0.000000 0.000000 0.000000 0.000000 
0.677908 16.744371 1.965750 14.399499 37.676479 23.666242 0.677366 -2.761274 3.457030 -0.489155 -2.735987 -1.644642 -5.683012 -2.776016 2.560115 10.582142 -6.794578 -6.283136 -2.792929 -0.216327 0.230014 0.000000 0.000000 0.000000 -0.844999 8.511717 3.355891 -26.721271 -2.906684 9.485706 -3.640340 -42.580918 -0.000560 -10.746436 -0.149049 0.013435 -0.135241 -0.013677 0.000000 0.000000 0.000000 0.000000 0.000000 0.000000 0.000000 14.878301 -5.915603 0.960962 56.440666 3.691766 -2.571219 4.470940 20.401618 0.011891 11.609425 5.270087 0.536220 0.064787 -0.026509 -0.000000 0.000000 0.000000 0.000000 0.000000 0.000000 0.000000 
0.720240 16.758747 2.091761 14.108158 36.235547 23.604588 0.344052 -2.663792 3.213954 -0.563306 -2.630109 -1.702199 -5.703982 -2.672189 2.537442 10.635916 -6.302247 -6.138804 -2.790985 -0.218060 0.267778 0.000000 0.000000 0.000000 -0.785800 8.737388 3.294823 -27.484696 -1.796035 10.966229 -3.645568 -42.794553 -0.003198 -10.805579 -0.051554 0.003206 -0.135783 -0.026158 -0.000000 0.000000 0.000000 0.000000 0.000000 0.000000 0.000000 14.813345 -5.338421 0.981146 56.711725 5.013600 -1.936853 4.461575 20.331615 0.012227 11.769490 5.267393 0.543732 0.062568 -0.028716 -0.000000 0.000000 0.000000 0.000000 0.000000 0.000000 0.000000 
0.761159 16.775674 2.218177 13.824983 34.785185 23.581062 0.022235 -2.570606 2.943481 -0.632406 -2.529197 -1.766450 -5.714323 -2.573825 2.508761 10.650925 -5.868982 -6.006489 -2.788762 -0.219708 0.303057 0.000000 0.000000 0.000000 -0.750470 8.921063 3.229736 -28.322334 -0.612151 12.399008 -3.654887 -42.930554 -0.005882 -10.850550 0.071023 -0.009522 -0.136459 -0.038451 -0.000000 0.000000 0.000000 0.000000 0.000000 0.000000 0.000000 14.724198 -4.814275 1.001327 56.987229 6.346509 -0.949637 4.437045 20.580188 0.012607 11.908260 5.303507 0.554446 0.059661 -0.031219 -0.000000 0.000000 0.000000 0.000000 0.000000 0.000000 0.000000 
0.800849 16.794862 2.344743 13.540897 33.328117 23.579884 -0.279887 -2.477538 2.657765 -0.695248 -2.428961 -1.835241 -5.713836 -2.476575 2.473189 10.629180 -5.475785 -5.885972 -2.786276 -0.221248 0.335722 0.000000 0.000000 0.000000 -0.737443 9.086785 3.162656 -29.233076 0.583817 13.795961 -3.670098 -42.963725 -0.008542 -10.886227 0.211545 -0.023854 -0.137251 -0.050295 0.000000 0.000000 0.000000 0.000000 0.000000 0.000000 0.000000 14.609341 -4.319637 1.020313 57.264473 7.647281 0.349365 4.396691 21.166813 0.012992 12.035736 5.363371 0.567162 0.055962 -0.033978 -0.000000 0.000000 0.000000 0.000000 0.000000 0.000000 0.000000 
0.839333 16.815841 2.471347 13.251489 31.863721 23.587752 -0.561850 -2.381236 2.368113 -0.752182 -2.325699 -1.906725 -5.702628 -2.376681 2.429485 10.576223 -5.114059 -5.775896 -2.783353 -0.222671 0.366011 0.000000 0.000000 0.000000 -0.739807 9.237422 3.094787 -30.217486 1.772714 15.160180 -3.691017 -42.893402 -0.011155 -10.922556 0.366228 -0.039688 -0.138000 -0.061573 0.000000 0.000000 0.000000 0.000000 0.000000 0.000000 0.000000 14.471065 -3.843570 1.038275 57.534213 8.896646 1.934051 4.339798 22.085065 0.013375 12.151795 5.440148 0.581377 0.051450 -0.037033 -0.000000 0.000000 0.000000 0.000000 0.000000 0.000000 0.000000 
0.876504 16.838021 2.598048 12.957711 30.389054 23.594785 -0.831277 -2.279696 2.083784 -0.805250 -2.216788 -1.979377 -5.681412 -2.271493 2.376835 10.502289 -4.805858 -5.675910 -2.780223 -0.224009 0.394044 0.000000 0.000000 0.000000 -0.747770 9.337785 3.024222 -31.277916 3.005913 16.468513 -3.714263 -42.756160 -0.013768 -10.975543 0.538250 -0.057228 -0.138318 -0.072408 0.000000 0.000000 0.000000 0.000000 0.000000 0.000000 0.000000 14.323972 -3.410311 1.058675 57.773020 10.128920 3.839244 4.266392 23.289657 0.013805 12.232152 5.549552 0.597693 0.046343 -0.040568 -0.000000 0.000000 0.000000 0.000000 0.000000 0.000000 0.000000 
0.912210 16.860715 2.725025 12.663962 28.899955 23.594255 -1.097831 -2.171788 1.811777 -0.856841 -2.100465 -2.051410 -5.651225 -2.159156 2.316956 10.416849 -4.561431 -5.585860 -2.776664 -0.225249 0.419786 0.000000 0.000000 0.000000 -0.757585 9.379381 2.950071 -32.403755 4.295676 17.713256 -3.737545 -42.574594 -0.016406 -11.055819 0.725678 -0.076674 -0.137935 -0.082835 0.000000 0.000000 0.000000 0.000000 0.000000 0.000000 0.000000 14.178967 -3.032164 1.083163 57.966818 11.372360 6.045484 4.177392 24.729356 0.014314 12.265987 5.696609 0.615811 0.040821 -0.044757 -0.000000 0.000000 0.000000 0.000000 0.000000 0.000000 0.000000 
0.946324 16.883187 2.852417 12.376904 27.390783 23.581327 -1.371334 -2.056765 1.557973 -0.909121 -1.975364 -2.121324 -5.612794 -2.038185 2.251102 10.322960 -4.310954 -5.498628 -2.771066 -0.226303 0.444691 0.000000 0.000000 0.000000 -0.766315 9.439297 2.879741 -33.573356 5.517060 18.949993 -3.764381 -42.309029 -0.018974 -11.161612 0.917784 -0.096926 -0.137080 -0.092481 0.000000 0.000000 0.000000 0.000000 0.000000 0.000000 0.000000 14.019079 -2.633806 1.104096 58.139027 12.544496 8.352839 4.071176 26.408657 0.014818 12.294985 5.833318 0.632924 0.034466 -0.049506 -0.000000 0.000000 0.000000 0.000000 0.000000 0.000000 0.000000 
0.978778 16.904786 2.980534 12.103777 25.856492 23.555935 -1.663791 -1.936141 1.321911 -0.964793 -1.842457 -2.188574 -5.567486 -1.909532 2.182025 10.229221 -4.095801 -5.415852 -2.763505 -0.227189 0.468484 0.000000 0.000000 0.000000 -0.772410 9.474581 2.809009 -34.778809 6.752543 20.141611 -3.789565 -42.018445 -0.021538 -11.302342 1.116830 -0.118584 -0.135371 -0.101587 0.000000 0.000000 0.000000 0.000000 0.000000 0.000000 0.000000 13.861242 -2.263860 1.126022 58.273018 13.729771 10.797470 3.951692 28.237678 0.015403 12.293578 5.985723 0.650237 0.027711 -0.055067 -0.000000 0.000000 0.000000 0.000000 0.000000 0.000000 0.000000 
1.009515 16.924940 3.109578 11.851696 24.292970 23.519870 -1.983799 -1.811794 1.101764 -1.025757 -1.703256 -2.252678 -5.516673 -1.774648 2.113129 10.139781 -3.918035 -5.337208 -2.753727 -0.227891 0.491216 0.000000 0.000000 0.000000 -0.780107 9.492361 2.737798 -36.002856 8.004255 21.282142 -3.811425 -41.726547 -0.024109 -11.480039 1.322482 -0.141949 -0.132741 -0.110187 0.000000 0.000000 0.000000 0.000000 0.000000 0.000000 0.000000 13.709636 -1.927698 1.148767 58.371033 14.954863 13.339616 3.821741 30.164168 0.016086 12.258749 6.155443 0.667649 0.020745 -0.061521 -0.000000 0.000000 0.000000 0.000000 0.000000 0.000000 0.000000 
